<?xml version="1.0" encoding="UTF-8" standalone="no"?>
<!DOCTYPE svg PUBLIC "-//W3C//DTD SVG 1.1//EN" "http://www.w3.org/Graphics/SVG/1.1/DTD/svg11.dtd"
[
<!ATTLIST g
  xmlns:vectornator CDATA #FIXED "http://vectornator.io"
  vectornator:layerName CDATA #IMPLIED >
<!ATTLIST g
  xmlns:vectornator CDATA #FIXED "http://vectornator.io"
  vectornator:mask CDATA #IMPLIED >
<!ATTLIST text
  xmlns:vectornator CDATA #FIXED "http://vectornator.io"
  vectornator:width CDATA #IMPLIED >
<!ATTLIST text
  xmlns:vectornator CDATA #FIXED "http://vectornator.io"
  vectornator:text CDATA #IMPLIED >

<!ATTLIST path
  xmlns:vectornator CDATA #FIXED "http://vectornator.io"
  vectornator:blendMode CDATA #IMPLIED >
<!ATTLIST path
  xmlns:vectornator CDATA #FIXED "http://vectornator.io"
  vectornator:shadowColor CDATA #IMPLIED >
<!ATTLIST path
  xmlns:vectornator CDATA #FIXED "http://vectornator.io"
  vectornator:shadowOpacity CDATA #IMPLIED >
<!ATTLIST path
  xmlns:vectornator CDATA #FIXED "http://vectornator.io"
  vectornator:shadowRadius CDATA #IMPLIED >
<!ATTLIST path
  xmlns:vectornator CDATA #FIXED "http://vectornator.io"
  vectornator:shadowOffset CDATA #IMPLIED >
<!ATTLIST path
  xmlns:vectornator CDATA #FIXED "http://vectornator.io"
  vectornator:shadowAngle CDATA #IMPLIED >

<!ATTLIST image
  xmlns:vectornator CDATA #FIXED "http://vectornator.io"
  vectornator:blendMode CDATA #IMPLIED >
<!ATTLIST image
  xmlns:vectornator CDATA #FIXED "http://vectornator.io"
  vectornator:shadowColor CDATA #IMPLIED >
<!ATTLIST image
  xmlns:vectornator CDATA #FIXED "http://vectornator.io"
  vectornator:shadowOpacity CDATA #IMPLIED >
<!ATTLIST image
  xmlns:vectornator CDATA #FIXED "http://vectornator.io"
  vectornator:shadowRadius CDATA #IMPLIED >
<!ATTLIST image
  xmlns:vectornator CDATA #FIXED "http://vectornator.io"
  vectornator:shadowOffset CDATA #IMPLIED >
<!ATTLIST image
  xmlns:vectornator CDATA #FIXED "http://vectornator.io"
  vectornator:shadowAngle CDATA #IMPLIED >

<!ATTLIST g
  xmlns:vectornator CDATA #FIXED "http://vectornator.io"
  vectornator:blendMode CDATA #IMPLIED >
<!ATTLIST g
  xmlns:vectornator CDATA #FIXED "http://vectornator.io"
  vectornator:shadowColor CDATA #IMPLIED >
<!ATTLIST g
  xmlns:vectornator CDATA #FIXED "http://vectornator.io"
  vectornator:shadowOpacity CDATA #IMPLIED >
<!ATTLIST g
  xmlns:vectornator CDATA #FIXED "http://vectornator.io"
  vectornator:shadowRadius CDATA #IMPLIED >
<!ATTLIST g
  xmlns:vectornator CDATA #FIXED "http://vectornator.io"
  vectornator:shadowOffset CDATA #IMPLIED >
<!ATTLIST g
  xmlns:vectornator CDATA #FIXED "http://vectornator.io"
  vectornator:shadowAngle CDATA #IMPLIED >

<!ENTITY % SVG.filter.extra.content  "| feDropShadow" >
<!ELEMENT feDropShadow EMPTY>
<!ATTLIST feDropShadow
  xmlns:svg CDATA #FIXED "http://www.w3.org/Graphics/SVG/1.1/DTD/svg11.dtd"
  dx CDATA #IMPLIED>
<!ATTLIST feDropShadow
  xmlns:svg CDATA #FIXED "http://www.w3.org/Graphics/SVG/1.1/DTD/svg11.dtd"
  dy CDATA #IMPLIED>
<!ATTLIST feDropShadow
  xmlns:svg CDATA #FIXED "http://www.w3.org/Graphics/SVG/1.1/DTD/svg11.dtd"
  stdDeviation CDATA #IMPLIED>
<!ATTLIST feDropShadow
  xmlns:svg CDATA #FIXED "http://www.w3.org/Graphics/SVG/1.1/DTD/svg11.dtd"
  flood-opacity CDATA #IMPLIED>
<!ATTLIST feDropShadow
  xmlns:svg CDATA #FIXED "http://www.w3.org/Graphics/SVG/1.1/DTD/svg11.dtd"
  in CDATA #IMPLIED>
<!ATTLIST feDropShadow
  xmlns:svg CDATA #FIXED "http://www.w3.org/Graphics/SVG/1.1/DTD/svg11.dtd"
  result CDATA #IMPLIED>
<!ATTLIST feDropShadow
  xmlns:svg CDATA #FIXED "http://www.w3.org/Graphics/SVG/1.1/DTD/svg11.dtd"
  flood-color CDATA #IMPLIED>
]
>
<!-- Created with Vectornator (http://vectornator.io/) -->
<svg height="100%" stroke-miterlimit="10" style="fill-rule:nonzero;clip-rule:evenodd;stroke-linecap:round;stroke-linejoin:round;" version="1.1" viewBox="0 0 1476.65 428.085" width="100%" xml:space="preserve" xmlns="http://www.w3.org/2000/svg" xmlns:vectornator="http://vectornator.io" xmlns:xlink="http://www.w3.org/1999/xlink">
<defs/>
<g id="Layer-2" vectornator:layerName="Layer 2">
<path d="M0 4.12853e-05L0 426.156L136.094 426.156L136.094 272.813L223.625 400.594L310.5 272.813L310.5 426.156L446.594 426.156L446.594 4.12853e-05L334.156 4.12853e-05L223.625 163.563L112.438 4.12853e-05L0 4.12853e-05Z" fill="#000000" fill-rule="evenodd" opacity="1" stroke="none"/>
<path d="M852.22 0L852.22 426.156L988.31 426.156L988.31 324.562C1015.57 324.562 1041.05 321.588 1064.69 315.625C1088.33 309.662 1108.98 300.279 1126.66 287.5C1144.33 274.722 1158.28 258.002 1168.5 237.344C1178.72 216.685 1183.84 191.672 1183.84 162.281C1183.84 132.891 1178.72 107.877 1168.5 87.2188C1158.28 66.5603 1144.33 49.8411 1126.66 37.0625C1108.98 24.2839 1088.33 14.9007 1064.69 8.9375C1041.05 2.97428 1015.57 0 988.31 0L852.22 0ZM1215.78 0L1215.78 426.156L1475.19 426.156L1475.19 314.344L1357.63 314.344L1357.63 0L1215.78 0ZM965.095 73.5938C968.023 77.6204 970.948 81.6608 973.876 85.6875C979.733 93.7407 985.05 96.8616 989.81 95.0312C992.19 94.1161 994.56 93.1964 996.94 92.2812C996.39 97.5891 995.83 102.88 995.28 108.188C994.18 118.803 994.55 125.045 996.38 126.875C997.29 127.79 998.21 128.71 999.13 129.625C1004.62 121.938 1010.1 114.25 1015.59 106.562C1021.09 98.8751 1026.6 91.1873 1032.09 83.5C1033.74 86.6114 1035.39 89.7009 1037.03 92.8125C1040.33 99.0356 1047.65 100.152 1059 96.125C1064.68 94.1117 1070.33 92.0758 1076 90.0625C1076 91.8928 1076 93.7322 1076 95.5625C1076 99.2229 1074.36 105.268 1071.06 113.688C1067.77 122.107 1066.49 127.036 1067.22 128.5C1067.95 129.964 1071.07 131.607 1076.56 133.438C1079.31 134.353 1082.04 135.272 1084.78 136.188C1077.28 141.496 1069.79 146.817 1062.28 152.125C1047.27 162.741 1040.14 169.147 1040.88 171.344C1041.61 173.54 1047.65 174.098 1059 173C1064.68 172.451 1070.33 171.893 1076 171.344C1075.09 173.723 1074.17 176.089 1073.25 178.469C1071.42 183.228 1074.74 188.353 1083.16 193.844C1087.37 196.589 1091.57 199.348 1095.78 202.094C1090.66 205.388 1085.53 208.674 1080.41 211.969C1070.16 218.558 1065.76 223.683 1067.22 227.344C1067.95 229.174 1068.68 231.013 1069.41 232.844C1068.31 233.21 1067.22 233.571 1066.13 233.938C1063.93 234.67 1053.48 234.112 1034.81 232.281C1016.14 230.451 1005.01 232.094 1001.34 237.219C999.51 239.781 997.68 242.344 995.84 244.906C992.73 240.697 989.61 236.491 986.5 232.281C980.278 223.862 974.791 217.652 970.032 213.625C965.273 209.598 957.028 213.804 945.314 226.25C939.457 232.473 933.608 238.683 927.751 244.906C927.019 244.174 926.296 243.451 925.564 242.719C924.831 241.987 924.108 241.263 923.376 240.531C929.599 234.674 935.809 228.826 942.032 222.969C954.478 211.255 958.684 203.009 954.657 198.25C950.631 193.491 944.421 188.004 936.001 181.781C931.791 178.67 927.586 175.549 923.376 172.438C924.658 171.888 925.939 171.33 927.22 170.781C929.782 169.683 932.51 167.317 935.439 163.656C938.367 159.996 938.729 148.66 936.532 129.625C934.337 110.59 933.613 100.701 934.345 99.9688C935.077 99.2368 937.278 99.5983 940.939 101.062C944.599 102.527 949.528 98.3212 955.751 88.4375C958.863 83.4958 961.983 78.5356 965.095 73.5938Z" fill="#000000" fill-rule="evenodd" opacity="1" stroke="none"/>
</g>
<g id="Layer-3" vectornator:layerName="Layer 3">
<path d="M594.165 113.801L472.571 425.739L621.821 425.739L649.759 354.676L677.446 425.739L826.29 425.739L704.696 113.801L594.165 113.801Z" fill="#000000" fill-rule="evenodd" opacity="1" stroke="none"/>
</g>
</svg>
