<?xml version="1.0" encoding="UTF-8" standalone="no"?>
<!DOCTYPE svg PUBLIC "-//W3C//DTD SVG 1.1//EN" "http://www.w3.org/Graphics/SVG/1.1/DTD/svg11.dtd"
[
<!ATTLIST g
  xmlns:vectornator CDATA #FIXED "http://vectornator.io"
  vectornator:layerName CDATA #IMPLIED >
<!ATTLIST g
  xmlns:vectornator CDATA #FIXED "http://vectornator.io"
  vectornator:mask CDATA #IMPLIED >
<!ATTLIST text
  xmlns:vectornator CDATA #FIXED "http://vectornator.io"
  vectornator:width CDATA #IMPLIED >
<!ATTLIST text
  xmlns:vectornator CDATA #FIXED "http://vectornator.io"
  vectornator:text CDATA #IMPLIED >

<!ATTLIST path
  xmlns:vectornator CDATA #FIXED "http://vectornator.io"
  vectornator:blendMode CDATA #IMPLIED >
<!ATTLIST path
  xmlns:vectornator CDATA #FIXED "http://vectornator.io"
  vectornator:shadowColor CDATA #IMPLIED >
<!ATTLIST path
  xmlns:vectornator CDATA #FIXED "http://vectornator.io"
  vectornator:shadowOpacity CDATA #IMPLIED >
<!ATTLIST path
  xmlns:vectornator CDATA #FIXED "http://vectornator.io"
  vectornator:shadowRadius CDATA #IMPLIED >
<!ATTLIST path
  xmlns:vectornator CDATA #FIXED "http://vectornator.io"
  vectornator:shadowOffset CDATA #IMPLIED >
<!ATTLIST path
  xmlns:vectornator CDATA #FIXED "http://vectornator.io"
  vectornator:shadowAngle CDATA #IMPLIED >

<!ATTLIST image
  xmlns:vectornator CDATA #FIXED "http://vectornator.io"
  vectornator:blendMode CDATA #IMPLIED >
<!ATTLIST image
  xmlns:vectornator CDATA #FIXED "http://vectornator.io"
  vectornator:shadowColor CDATA #IMPLIED >
<!ATTLIST image
  xmlns:vectornator CDATA #FIXED "http://vectornator.io"
  vectornator:shadowOpacity CDATA #IMPLIED >
<!ATTLIST image
  xmlns:vectornator CDATA #FIXED "http://vectornator.io"
  vectornator:shadowRadius CDATA #IMPLIED >
<!ATTLIST image
  xmlns:vectornator CDATA #FIXED "http://vectornator.io"
  vectornator:shadowOffset CDATA #IMPLIED >
<!ATTLIST image
  xmlns:vectornator CDATA #FIXED "http://vectornator.io"
  vectornator:shadowAngle CDATA #IMPLIED >

<!ATTLIST g
  xmlns:vectornator CDATA #FIXED "http://vectornator.io"
  vectornator:blendMode CDATA #IMPLIED >
<!ATTLIST g
  xmlns:vectornator CDATA #FIXED "http://vectornator.io"
  vectornator:shadowColor CDATA #IMPLIED >
<!ATTLIST g
  xmlns:vectornator CDATA #FIXED "http://vectornator.io"
  vectornator:shadowOpacity CDATA #IMPLIED >
<!ATTLIST g
  xmlns:vectornator CDATA #FIXED "http://vectornator.io"
  vectornator:shadowRadius CDATA #IMPLIED >
<!ATTLIST g
  xmlns:vectornator CDATA #FIXED "http://vectornator.io"
  vectornator:shadowOffset CDATA #IMPLIED >
<!ATTLIST g
  xmlns:vectornator CDATA #FIXED "http://vectornator.io"
  vectornator:shadowAngle CDATA #IMPLIED >

<!ENTITY % SVG.filter.extra.content  "| feDropShadow" >
<!ELEMENT feDropShadow EMPTY>
<!ATTLIST feDropShadow
  xmlns:svg CDATA #FIXED "http://www.w3.org/Graphics/SVG/1.1/DTD/svg11.dtd"
  dx CDATA #IMPLIED>
<!ATTLIST feDropShadow
  xmlns:svg CDATA #FIXED "http://www.w3.org/Graphics/SVG/1.1/DTD/svg11.dtd"
  dy CDATA #IMPLIED>
<!ATTLIST feDropShadow
  xmlns:svg CDATA #FIXED "http://www.w3.org/Graphics/SVG/1.1/DTD/svg11.dtd"
  stdDeviation CDATA #IMPLIED>
<!ATTLIST feDropShadow
  xmlns:svg CDATA #FIXED "http://www.w3.org/Graphics/SVG/1.1/DTD/svg11.dtd"
  flood-opacity CDATA #IMPLIED>
<!ATTLIST feDropShadow
  xmlns:svg CDATA #FIXED "http://www.w3.org/Graphics/SVG/1.1/DTD/svg11.dtd"
  in CDATA #IMPLIED>
<!ATTLIST feDropShadow
  xmlns:svg CDATA #FIXED "http://www.w3.org/Graphics/SVG/1.1/DTD/svg11.dtd"
  result CDATA #IMPLIED>
<!ATTLIST feDropShadow
  xmlns:svg CDATA #FIXED "http://www.w3.org/Graphics/SVG/1.1/DTD/svg11.dtd"
  flood-color CDATA #IMPLIED>
]
>
<!-- Created with Vectornator (http://vectornator.io/) -->
<svg height="100%" stroke-miterlimit="10" style="fill-rule:nonzero;clip-rule:evenodd;stroke-linecap:round;stroke-linejoin:round;" version="1.1" viewBox="0 0 1491.21 428.085" width="100%" xml:space="preserve" xmlns="http://www.w3.org/2000/svg" xmlns:vectornator="http://vectornator.io" xmlns:xlink="http://www.w3.org/1999/xlink">
<defs/>
<g id="Layer-2" vectornator:layerName="Layer 2">
<path d="M0 4.12853e-05L0 426.156L136.094 426.156L136.094 272.813L223.625 400.594L310.5 272.813L310.5 426.156L446.594 426.156L446.594 4.12853e-05L334.156 4.12853e-05L223.625 163.563L112.438 4.12853e-05L0 4.12853e-05Z" fill="#000000" fill-rule="evenodd" opacity="1" stroke="none"/>
<path d="M868.22 0L868.22 426.156L1004.31 426.156L1004.31 324.562C1031.57 324.562 1057.05 321.588 1080.69 315.625C1104.33 309.662 1124.98 300.279 1142.66 287.5C1160.33 274.722 1174.28 258.002 1184.5 237.344C1194.72 216.685 1199.84 191.672 1199.84 162.281C1199.84 132.891 1194.72 107.877 1184.5 87.2188C1174.28 66.5603 1160.33 49.8411 1142.66 37.0625C1124.98 24.2839 1104.33 14.9007 1080.69 8.9375C1057.05 2.97428 1031.57 0 1004.31 0L868.22 0ZM1231.78 0L1231.78 426.156L1491.19 426.156L1491.19 314.344L1373.63 314.344L1373.63 0L1231.78 0ZM981.095 73.5938C984.023 77.6204 986.948 81.6608 989.876 85.6875C995.733 93.7407 1001.05 96.8616 1005.81 95.0312C1008.19 94.1161 1010.56 93.1964 1012.94 92.2812C1012.39 97.5891 1011.83 102.88 1011.28 108.188C1010.18 118.803 1010.55 125.045 1012.38 126.875C1013.29 127.79 1014.21 128.71 1015.13 129.625C1020.62 121.938 1026.1 114.25 1031.59 106.562C1037.09 98.8751 1042.6 91.1873 1048.09 83.5C1049.74 86.6114 1051.39 89.7009 1053.03 92.8125C1056.33 99.0356 1063.65 100.152 1075 96.125C1080.68 94.1117 1086.33 92.0758 1092 90.0625C1092 91.8928 1092 93.7322 1092 95.5625C1092 99.2229 1090.36 105.268 1087.06 113.688C1083.77 122.107 1082.49 127.036 1083.22 128.5C1083.95 129.964 1087.07 131.607 1092.56 133.438C1095.31 134.353 1098.04 135.272 1100.78 136.188C1093.28 141.496 1085.79 146.817 1078.28 152.125C1063.27 162.741 1056.14 169.147 1056.88 171.344C1057.61 173.54 1063.65 174.098 1075 173C1080.68 172.451 1086.33 171.893 1092 171.344C1091.09 173.723 1090.17 176.089 1089.25 178.469C1087.42 183.228 1090.74 188.353 1099.16 193.844C1103.37 196.589 1107.57 199.348 1111.78 202.094C1106.66 205.388 1101.53 208.674 1096.41 211.969C1086.16 218.558 1081.76 223.683 1083.22 227.344C1083.95 229.174 1084.68 231.013 1085.41 232.844C1084.31 233.21 1083.22 233.571 1082.13 233.938C1079.93 234.67 1069.48 234.112 1050.81 232.281C1032.14 230.451 1021.01 232.094 1017.34 237.219C1015.51 239.781 1013.68 242.344 1011.84 244.906C1008.73 240.697 1005.61 236.491 1002.5 232.281C996.278 223.862 990.791 217.652 986.032 213.625C981.273 209.598 973.028 213.804 961.314 226.25C955.457 232.473 949.608 238.683 943.751 244.906C943.019 244.174 942.296 243.451 941.564 242.719C940.831 241.987 940.108 241.263 939.376 240.531C945.599 234.674 951.809 228.826 958.032 222.969C970.478 211.255 974.684 203.009 970.657 198.25C966.631 193.491 960.421 188.004 952.001 181.781C947.791 178.67 943.586 175.549 939.376 172.438C940.658 171.888 941.939 171.33 943.22 170.781C945.782 169.683 948.51 167.317 951.439 163.656C954.367 159.996 954.729 148.66 952.532 129.625C950.337 110.59 949.613 100.701 950.345 99.9688C951.077 99.2368 953.278 99.5983 956.939 101.062C960.599 102.527 965.528 98.3212 971.751 88.4375C974.863 83.4958 977.983 78.5356 981.095 73.5938Z" fill="#000000" fill-rule="evenodd" opacity="1" stroke="none"/>
</g>
<g id="Layer-3" vectornator:layerName="Layer 3">
<path d="M594.165 113.801L472.571 425.739L621.821 425.739L649.759 354.676L677.446 425.739L826.29 425.739L704.696 113.801L594.165 113.801Z" fill="#000000" fill-rule="evenodd" opacity="1" stroke="none"/>
</g>
</svg>
