<?xml version="1.0" encoding="UTF-8" standalone="no"?>
<!DOCTYPE svg PUBLIC "-//W3C//DTD SVG 1.1//EN" "http://www.w3.org/Graphics/SVG/1.1/DTD/svg11.dtd">
<!-- Created with Vectornator (http://vectornator.io/) -->
<svg height="100%" stroke-miterlimit="10" style="fill-rule:nonzero;clip-rule:evenodd;stroke-linecap:round;stroke-linejoin:round;" version="1.1" viewBox="0 0 960 420" width="100%" xml:space="preserve" xmlns="http://www.w3.org/2000/svg" xmlns:xlink="http://www.w3.org/1999/xlink">
<defs/>
<g id="Layer-2">
<path d="M797.531 10L797.531 411.125L948.906 411.125L948.906 340.219L868.469 340.219L868.469 10L797.531 10Z" fill="#000000" fill-rule="nonzero" opacity="1" stroke="none"/>
</g>
<g id="Layer-4">
<path d="M639.5 10.9062C618.641 10.9062 600.69 14.5025 585.625 21.6875C570.56 28.8725 558.141 38.4792 548.406 50.5312C538.208 62.5832 530.568 76.938 525.469 93.625C520.37 110.312 518.941 123.463 520.906 141.375C522.942 159.934 526.106 175.052 533.469 187C545.595 206.677 564.407 224.204 595 236.719L645.75 257.594C654.557 261.303 661.638 264.755 666.969 268C672.299 271.244 676.599 275.432 679.844 280.531C682.625 285.63 683.786 289.451 685.406 297.688C686.459 303.038 684.833 314.73 681.125 321.219C677.417 327.709 670.221 331.679 663.5 335.156C656.779 338.633 647.396 340.375 635.344 340.375C617.266 340.375 609.398 335.149 601.75 324.719C594.102 314.29 590.281 302.604 590.281 289.625L590.281 267.375L519.344 267.375L519.344 293.781C519.344 310.468 522.492 325.893 528.75 340.031C535.008 354.169 543.464 366.558 554.125 377.219C564.786 387.881 577.511 396.224 592.344 402.25C607.177 408.276 618.193 411.281 635.344 411.281C658.057 411.281 677.271 407.604 693.031 400.188C708.791 392.772 721.547 382.573 731.281 369.594C740.552 357.079 747.085 348.509 752.438 324.031C755.644 309.367 756.329 297.598 754.938 283.656C753.521 269.468 749.599 256.875 744.5 245.75C738.938 235.088 731.297 225.706 721.562 217.594C711.828 209.483 699.073 202.432 683.312 196.406L629.062 174.844C619.792 171.135 612.487 167.427 607.156 163.719C601.825 160.01 597.781 155.599 595 150.5C592.219 145.401 589.453 129.462 590.844 121.812C592.234 114.164 594.76 107.307 598.469 101.281C602.177 95.7192 607.068 91.083 613.094 87.375C619.12 83.666 626.985 81.8124 636.719 81.8125C654.797 81.8125 665.665 87.7425 673.312 99.5625C680.962 111.383 684.781 125.401 684.781 141.625L684.781 157.594L755.719 157.594L755.719 122.844C755.719 94.1037 745.041 68.624 723.719 46.375C713.057 35.714 700.415 27.1141 685.812 20.625C671.211 14.135 657.114 10.9063 639.5 10.9062Z" fill="#000000" fill-rule="nonzero" opacity="1" stroke="none"/>
</g>
<g id="Layer-5">
<path d="M362.094 11.0312C344.48 11.0313 330.382 14.26 315.781 20.75C301.179 27.2391 288.537 35.839 277.875 46.5C256.553 68.749 245.875 94.2287 245.875 122.969L245.875 157.719L316.812 157.719L316.812 141.75C316.812 125.526 320.632 111.508 328.281 99.6875C335.929 87.8675 346.797 81.9375 364.875 81.9375C374.609 81.9374 382.474 83.791 388.5 87.5C394.526 91.2079 399.417 95.8442 403.125 101.406C406.834 107.432 409.36 114.289 410.75 121.938C412.141 129.587 409.375 145.526 406.594 150.625C403.813 155.724 399.769 160.135 394.438 163.844C389.107 167.552 381.801 171.26 372.531 174.969L318.281 196.531C302.521 202.557 289.765 209.608 280.031 217.719C270.296 225.831 262.656 235.213 257.094 245.875C251.995 257 248.072 269.593 246.656 283.781C245.265 297.723 245.949 309.492 249.156 324.156C254.509 348.634 261.041 357.204 270.312 369.719C280.046 382.698 292.802 392.897 308.562 400.312C324.322 407.729 343.537 411.406 366.25 411.406C383.401 411.406 394.417 408.401 409.25 402.375C409.93 402.099 410.547 401.755 411.219 401.469L411.219 411.656L481.438 411.656L481.438 129.781C481.458 128.899 481.437 128.023 481.438 127.156L481.438 124.5L481.344 124.5C481.086 114.227 479.478 104.722 476.125 93.75C471.026 77.063 463.386 62.7082 453.188 50.6562C443.453 38.6042 431.034 28.9975 415.969 21.8125C400.904 14.6275 382.953 11.0312 362.094 11.0312ZM411.219 234.75L411.219 291C410.976 303.47 407.24 314.758 399.844 324.844C392.196 335.274 384.328 340.5 366.25 340.5C354.198 340.5 344.815 338.758 338.094 335.281C331.373 331.804 324.177 327.834 320.469 321.344C316.761 314.855 315.135 303.163 316.188 297.812C317.807 289.576 318.969 285.755 321.75 280.656C324.995 275.557 329.295 271.369 334.625 268.125C339.956 264.88 347.037 261.428 355.844 257.719L406.594 236.844C408.212 236.182 409.666 235.439 411.219 234.75Z" fill="#000000" fill-rule="nonzero" opacity="1" stroke="none"/>
</g>
<g id="Layer-1">
<path d="M10 10.0625L10 412.125L221.375 412.125L221.375 341.219L80.9375 341.219L80.9375 237.875L193.312 237.875L193.312 171.125L80.9375 171.125L80.9375 76.8125L221.375 76.8125L221.375 10.0625L10 10.0625Z" fill="#000000" fill-rule="nonzero" opacity="1" stroke="none"/>
</g>
</svg>
