<?xml version="1.0" encoding="UTF-8" standalone="no"?>
<!DOCTYPE svg PUBLIC "-//W3C//DTD SVG 1.1//EN" "http://www.w3.org/Graphics/SVG/1.1/DTD/svg11.dtd">
<!-- Created with Vectornator (http://vectornator.io/) -->
<svg height="100%" stroke-miterlimit="10" style="fill-rule:nonzero;clip-rule:evenodd;stroke-linecap:round;stroke-linejoin:round;" version="1.1" viewBox="0 0 1105 670" width="100%" xml:space="preserve" xmlns="http://www.w3.org/2000/svg" xmlns:xlink="http://www.w3.org/1999/xlink">
<defs/>
<g id="Layer-1_2">
<path d="M32.5 60L32.5 560L1072.5 560L1072.5 60L32.5 60ZM870.031 110L940.969 110L940.969 440.219L1021.41 440.219L1021.41 511.125L870.031 511.125L870.031 110ZM82.5 110.062L293.875 110.062L293.875 176.812L153.438 176.812L153.438 271.125L265.812 271.125L265.812 337.875L153.438 337.875L153.438 441.219L293.875 441.219L293.875 512.125L82.5 512.125L82.5 110.062ZM712 110.906C729.614 110.906 743.711 114.135 758.312 120.625C772.915 127.114 785.557 135.714 796.219 146.375C817.541 168.624 828.219 194.103 828.219 222.844L828.219 257.594L757.281 257.594L757.281 241.625C757.281 225.401 753.463 211.383 745.812 199.562C738.165 187.743 727.297 181.812 709.219 181.812C699.485 181.812 691.62 183.666 685.594 187.375C679.568 191.083 674.677 195.719 670.969 201.281C667.26 207.307 664.734 214.164 663.344 221.812C661.953 229.463 664.719 245.401 667.5 250.5C670.281 255.599 674.325 260.01 679.656 263.719C684.987 267.427 692.292 271.135 701.562 274.844L755.812 296.406C771.573 302.432 784.328 309.483 794.062 317.594C803.797 325.706 811.438 335.088 817 345.75C822.099 356.875 826.02 369.468 827.438 383.656C828.828 397.598 828.144 409.367 824.938 424.031C819.585 448.509 813.052 457.079 803.781 469.594C794.047 482.573 781.291 492.772 765.531 500.188C749.771 507.603 730.557 511.281 707.844 511.281C690.693 511.281 679.677 508.276 664.844 502.25C650.011 496.224 637.286 487.881 626.625 477.219C615.964 466.558 607.508 454.169 601.25 440.031C594.992 425.893 591.844 410.468 591.844 393.781L591.844 367.375L662.781 367.375L662.781 389.625C662.781 402.604 666.602 414.29 674.25 424.719C681.898 435.149 689.766 440.375 707.844 440.375C719.896 440.375 729.279 438.633 736 435.156C742.721 431.679 749.917 427.709 753.625 421.219C757.333 414.73 758.959 403.037 757.906 397.688C756.286 389.45 755.125 385.63 752.344 380.531C749.099 375.432 744.799 371.244 739.469 368C734.138 364.755 727.057 361.303 718.25 357.594L667.5 336.719C636.907 324.204 618.095 306.677 605.969 287C598.606 275.052 595.442 259.934 593.406 241.375C591.441 223.463 592.87 210.312 597.969 193.625C603.068 176.938 610.708 162.583 620.906 150.531C630.641 138.479 643.06 128.873 658.125 121.688C673.19 114.502 691.141 110.906 712 110.906ZM434.594 111.031C455.453 111.031 473.404 114.627 488.469 121.812C503.534 128.997 515.952 138.604 525.688 150.656C535.886 162.708 543.526 177.063 548.625 193.75C551.978 204.722 553.586 214.227 553.844 224.5L553.938 224.5L553.938 227.156C553.936 228.023 553.958 228.899 553.938 229.781L553.938 511.656L483.719 511.656L483.719 501.469C483.047 501.755 482.43 502.099 481.75 502.375C466.917 508.401 455.901 511.406 438.75 511.406C416.037 511.406 396.823 507.73 381.062 500.312C365.302 492.898 352.547 482.698 342.812 469.719C333.541 457.204 327.009 448.634 321.656 424.156C318.449 409.492 317.765 397.723 319.156 383.781C320.572 369.593 324.495 357 329.594 345.875C335.156 335.213 342.796 325.831 352.531 317.719C362.265 309.608 375.021 302.557 390.781 296.531L445.031 274.969C454.301 271.26 461.606 267.552 466.938 263.844C472.268 260.135 476.313 255.724 479.094 250.625C481.875 245.526 484.641 229.587 483.25 221.938C481.86 214.288 479.334 207.432 475.625 201.406C471.917 195.844 467.026 191.208 461 187.5C454.974 183.791 447.109 181.937 437.375 181.938C419.297 181.938 408.429 187.867 400.781 199.688C393.132 211.508 389.312 225.526 389.312 241.75L389.312 257.719L318.375 257.719L318.375 222.969C318.375 194.228 329.053 168.749 350.375 146.5C361.037 135.839 373.679 127.239 388.281 120.75C402.882 114.26 416.98 111.031 434.594 111.031ZM483.719 334.75C482.166 335.439 480.712 336.182 479.094 336.844L428.344 357.719C419.537 361.428 412.456 364.88 407.125 368.125C401.795 371.369 397.495 375.557 394.25 380.656C391.469 385.755 390.307 389.576 388.688 397.812C387.635 403.164 389.261 414.855 392.969 421.344C396.677 427.834 403.873 431.804 410.594 435.281C417.315 438.758 426.698 440.5 438.75 440.5C456.828 440.5 464.696 435.274 472.344 424.844C479.74 414.758 483.476 403.47 483.719 391L483.719 334.75Z" fill="#000000" fill-rule="nonzero" opacity="1" stroke="none"/>
<path d="M502.5 10L602.5 10L602.5 50L502.5 50L502.5 10Z" fill="#000000" fill-rule="nonzero" opacity="1" stroke="none"/>
<path d="M952 620L1052 620L1075 660L975 660L952 620Z" fill="#000000" fill-rule="nonzero" opacity="1" stroke="none"/>
<path d="M153 620L53 620L30 660L130 660L153 620Z" fill="#000000" fill-rule="nonzero" opacity="1" stroke="none"/>
<path d="M10 570L1095 570L1095 610L10 610L10 570Z" fill="#000000" fill-rule="nonzero" opacity="1" stroke="none"/>
</g>
</svg>
