<?xml version="1.0" encoding="UTF-8" standalone="no"?>
<!DOCTYPE svg PUBLIC "-//W3C//DTD SVG 1.1//EN" "http://www.w3.org/Graphics/SVG/1.1/DTD/svg11.dtd">
<!-- Created with Vectornator (http://vectornator.io/) -->
<svg height="100%" stroke-miterlimit="10" style="fill-rule:nonzero;clip-rule:evenodd;stroke-linecap:round;stroke-linejoin:round;" version="1.1" viewBox="0 0 1317 840" width="100%" xml:space="preserve" xmlns="http://www.w3.org/2000/svg" xmlns:vectornator="http://vectornator.io" xmlns:xlink="http://www.w3.org/1999/xlink">
<defs/>
<g id="Layer-4" vectornator:layerName="Layer 4">
<path d="M625 0L693 0L693 118L625 118L625 0Z" fill="#000000" fill-rule="evenodd" opacity="1" stroke="none"/>
<path d="M0 638L1317 638L1317 708L0 708L0 638Z" fill="#000000" fill-rule="evenodd" opacity="1" stroke="none"/>
</g>
<g id="Layer-3" vectornator:layerName="Layer 3">
<path d="M271.925 840L339 724L260.736 724L194 839.389" fill="#000000" fill-rule="nonzero" opacity="1" stroke="none"/>
<path d="M1042.07 840L975 724L1053.26 724L1120 839.389" fill="#000000" fill-rule="nonzero" opacity="1" stroke="none"/>
</g>
<g id="Layer-2" vectornator:layerName="Layer 2">
<path d="M510.719 123C493.105 123 477.007 126.229 462.406 132.719C447.804 139.208 435.162 147.808 424.5 158.469C403.178 180.718 392.5 206.197 392.5 234.937L392.5 269.687L463.438 269.687L463.438 253.719C463.438 237.495 467.257 223.476 474.906 211.656C482.554 199.836 495.422 193.906 513.5 193.906C523.234 193.906 531.099 195.76 537.125 199.469C543.151 203.177 548.042 207.813 551.75 213.375C555.459 219.401 557.985 226.258 559.375 233.906C560.766 241.555 561.469 249.531 561.469 257.875C561.469 267.609 561.132 275.729 560.438 282.219C559.741 288.708 558 294.495 555.219 299.594C552.438 304.693 548.393 309.103 543.062 312.813C537.731 316.521 530.426 320.228 521.156 323.937L466.906 345.5C451.145 351.526 438.39 358.576 428.656 366.687C418.921 374.799 411.281 384.182 405.719 394.844C400.62 405.969 397.135 418.612 395.281 432.75C393.426 446.888 392.5 462.985 392.5 481.063C392.5 501.922 394.609 521.279 398.781 539.125C402.952 556.971 409.667 572.172 418.938 584.687C428.671 597.666 441.427 607.865 457.188 615.281C472.948 622.698 492.162 626.375 514.875 626.375C531.8 626.375 547.613 623.431 562.281 617.563L562.281 622.375L631.969 622.375L631.969 538.844L631.969 482.469L631.969 426.844L631.969 272.687C632.224 268.084 632.406 263.42 632.406 258.563C632.406 240.021 629.849 222.406 624.75 205.719C619.651 189.032 612.01 174.677 601.812 162.625C592.079 150.573 579.659 140.966 564.594 133.781C549.529 126.596 531.578 123 510.719 123ZM562.281 382.656L562.281 522.313C560.375 528.487 557.485 534.336 553.469 539.813C545.821 550.242 532.953 555.469 514.875 555.469C502.823 555.469 493.44 553.727 486.719 550.25C479.998 546.773 474.802 541.802 471.094 535.313C467.386 528.823 465.164 521.039 464.469 512C463.774 502.961 463.438 492.906 463.438 481.781C463.438 468.802 463.885 458.125 464.812 449.781C465.74 441.438 467.594 434.724 470.375 429.625C473.62 424.526 477.92 420.338 483.25 417.094C488.581 413.849 495.662 410.396 504.469 406.687L555.219 385.813C557.675 384.808 559.955 383.713 562.281 382.656Z" fill="#000000" fill-rule="evenodd" opacity="1" stroke="none"/>
<path d="M794.28 123.3C773.421 123.3 755.47 126.896 740.405 134.081C725.34 141.266 712.92 150.873 703.186 162.925C692.988 174.977 685.348 189.332 680.249 206.019C675.15 222.706 672.592 240.321 672.592 258.863C672.592 289.919 677.819 315.766 688.249 336.394C698.678 357.021 719.187 373.597 749.78 386.112L800.53 406.987C809.337 410.696 816.418 414.149 821.749 417.394C827.079 420.638 831.379 424.826 834.624 429.925C837.405 435.024 839.259 441.738 840.186 450.081C841.113 458.425 841.561 469.102 841.561 482.081C841.561 493.206 841.225 503.261 840.53 512.3C839.835 521.339 837.613 529.123 833.905 535.612C830.197 542.102 825.001 547.073 818.28 550.55C811.559 554.027 802.176 555.769 790.124 555.769C772.046 555.769 759.178 550.542 751.53 540.112C743.882 529.683 740.061 517.998 740.061 505.019L740.061 482.769L669.124 482.769L669.124 509.175C669.124 525.862 672.272 541.287 678.53 555.425C684.788 569.563 693.244 581.951 703.905 592.612C714.566 603.274 727.291 611.618 742.124 617.644C756.957 623.67 772.973 626.675 790.124 626.675C812.837 626.675 832.051 622.998 847.811 615.581C863.571 608.165 876.327 597.966 886.061 584.987C895.332 572.472 902.046 557.271 906.217 539.425C910.389 521.579 912.499 502.222 912.499 481.362C912.499 463.285 911.572 447.188 909.717 433.05C907.863 418.912 904.379 406.269 899.28 395.144C893.718 384.482 886.077 375.099 876.342 366.987C866.608 358.876 853.853 351.826 838.092 345.8L783.842 324.238C774.572 320.529 767.267 316.821 761.936 313.113C756.605 309.404 752.561 304.993 749.78 299.894C746.999 294.795 745.257 289.008 744.561 282.519C743.866 276.029 743.53 267.909 743.53 258.175C743.53 249.831 744.233 241.855 745.624 234.206C747.014 226.558 749.54 219.701 753.249 213.675C756.957 208.113 761.848 203.477 767.874 199.769C773.9 196.06 781.765 194.206 791.499 194.206C809.577 194.206 822.444 200.136 830.092 211.956C837.741 223.776 841.561 237.795 841.561 254.019L841.561 269.988L912.499 269.988L912.499 235.238C912.499 206.498 901.821 181.018 880.499 158.769C869.837 148.108 857.194 139.508 842.592 133.019C827.991 126.529 811.894 123.3 794.28 123.3ZM142.78 127.456L142.78 622.519L354.155 622.519L354.155 551.612L213.717 551.612L213.717 406.269L336.092 406.269L336.092 339.519L213.717 339.519L213.717 194.206L354.155 194.206L354.155 127.456L142.78 127.456ZM965.31 127.456L965.31 622.519L1176.69 622.519L1176.69 551.612L1036.25 551.612L1036.25 127.456L965.31 127.456Z" fill="#000000" fill-rule="evenodd" opacity="1" stroke="none"/>
</g>
</svg>
