<?xml version="1.0" encoding="UTF-8" standalone="no"?>
<!DOCTYPE svg PUBLIC "-//W3C//DTD SVG 1.1//EN" "http://www.w3.org/Graphics/SVG/1.1/DTD/svg11.dtd"
[
<!ATTLIST g
  xmlns:vectornator CDATA #FIXED "http://vectornator.io"
  vectornator:layerName CDATA #IMPLIED >
<!ATTLIST g
  xmlns:vectornator CDATA #FIXED "http://vectornator.io"
  vectornator:mask CDATA #IMPLIED >
<!ATTLIST text
  xmlns:vectornator CDATA #FIXED "http://vectornator.io"
  vectornator:width CDATA #IMPLIED >
<!ATTLIST text
  xmlns:vectornator CDATA #FIXED "http://vectornator.io"
  vectornator:text CDATA #IMPLIED >

<!ATTLIST path
  xmlns:vectornator CDATA #FIXED "http://vectornator.io"
  vectornator:blendMode CDATA #IMPLIED >
<!ATTLIST path
  xmlns:vectornator CDATA #FIXED "http://vectornator.io"
  vectornator:shadowColor CDATA #IMPLIED >
<!ATTLIST path
  xmlns:vectornator CDATA #FIXED "http://vectornator.io"
  vectornator:shadowOpacity CDATA #IMPLIED >
<!ATTLIST path
  xmlns:vectornator CDATA #FIXED "http://vectornator.io"
  vectornator:shadowRadius CDATA #IMPLIED >
<!ATTLIST path
  xmlns:vectornator CDATA #FIXED "http://vectornator.io"
  vectornator:shadowOffset CDATA #IMPLIED >
<!ATTLIST path
  xmlns:vectornator CDATA #FIXED "http://vectornator.io"
  vectornator:shadowAngle CDATA #IMPLIED >

<!ATTLIST image
  xmlns:vectornator CDATA #FIXED "http://vectornator.io"
  vectornator:blendMode CDATA #IMPLIED >
<!ATTLIST image
  xmlns:vectornator CDATA #FIXED "http://vectornator.io"
  vectornator:shadowColor CDATA #IMPLIED >
<!ATTLIST image
  xmlns:vectornator CDATA #FIXED "http://vectornator.io"
  vectornator:shadowOpacity CDATA #IMPLIED >
<!ATTLIST image
  xmlns:vectornator CDATA #FIXED "http://vectornator.io"
  vectornator:shadowRadius CDATA #IMPLIED >
<!ATTLIST image
  xmlns:vectornator CDATA #FIXED "http://vectornator.io"
  vectornator:shadowOffset CDATA #IMPLIED >
<!ATTLIST image
  xmlns:vectornator CDATA #FIXED "http://vectornator.io"
  vectornator:shadowAngle CDATA #IMPLIED >

<!ATTLIST g
  xmlns:vectornator CDATA #FIXED "http://vectornator.io"
  vectornator:blendMode CDATA #IMPLIED >
<!ATTLIST g
  xmlns:vectornator CDATA #FIXED "http://vectornator.io"
  vectornator:shadowColor CDATA #IMPLIED >
<!ATTLIST g
  xmlns:vectornator CDATA #FIXED "http://vectornator.io"
  vectornator:shadowOpacity CDATA #IMPLIED >
<!ATTLIST g
  xmlns:vectornator CDATA #FIXED "http://vectornator.io"
  vectornator:shadowRadius CDATA #IMPLIED >
<!ATTLIST g
  xmlns:vectornator CDATA #FIXED "http://vectornator.io"
  vectornator:shadowOffset CDATA #IMPLIED >
<!ATTLIST g
  xmlns:vectornator CDATA #FIXED "http://vectornator.io"
  vectornator:shadowAngle CDATA #IMPLIED >

<!ENTITY % SVG.filter.extra.content  "| feDropShadow" >
<!ELEMENT feDropShadow EMPTY>
<!ATTLIST feDropShadow
  xmlns:svg CDATA #FIXED "http://www.w3.org/Graphics/SVG/1.1/DTD/svg11.dtd"
  dx CDATA #IMPLIED>
<!ATTLIST feDropShadow
  xmlns:svg CDATA #FIXED "http://www.w3.org/Graphics/SVG/1.1/DTD/svg11.dtd"
  dy CDATA #IMPLIED>
<!ATTLIST feDropShadow
  xmlns:svg CDATA #FIXED "http://www.w3.org/Graphics/SVG/1.1/DTD/svg11.dtd"
  stdDeviation CDATA #IMPLIED>
<!ATTLIST feDropShadow
  xmlns:svg CDATA #FIXED "http://www.w3.org/Graphics/SVG/1.1/DTD/svg11.dtd"
  flood-opacity CDATA #IMPLIED>
<!ATTLIST feDropShadow
  xmlns:svg CDATA #FIXED "http://www.w3.org/Graphics/SVG/1.1/DTD/svg11.dtd"
  in CDATA #IMPLIED>
<!ATTLIST feDropShadow
  xmlns:svg CDATA #FIXED "http://www.w3.org/Graphics/SVG/1.1/DTD/svg11.dtd"
  result CDATA #IMPLIED>
<!ATTLIST feDropShadow
  xmlns:svg CDATA #FIXED "http://www.w3.org/Graphics/SVG/1.1/DTD/svg11.dtd"
  flood-color CDATA #IMPLIED>
]
>
<!-- Created with Vectornator (http://vectornator.io/) -->
<svg height="100%" stroke-miterlimit="10" style="fill-rule:nonzero;clip-rule:evenodd;stroke-linecap:round;stroke-linejoin:round;" version="1.1" viewBox="0 0 1417.5 1040.91" width="100%" xml:space="preserve" xmlns="http://www.w3.org/2000/svg" xmlns:vectornator="http://vectornator.io" xmlns:xlink="http://www.w3.org/1999/xlink">
<defs/>
<clipPath id="ArtboardFrame">
<rect height="1040.91" width="1417.5" x="0" y="0"/>
</clipPath>
<g clip-path="url(#ArtboardFrame)" id="Layer-4" vectornator:layerName="Layer 4">
<path d="M674.73-1.42109e-14L742.77-1.42109e-14L742.77 180L674.73 180L674.73-1.42109e-14Z" fill="#000000" fill-rule="evenodd" opacity="1" stroke="none"/>
<path d="M0 700.645L1417.5 700.645L1417.5 771.52L0 771.52L0 700.645Z" fill="#000000" fill-rule="evenodd" opacity="1" stroke="none"/>
</g>
<g id="Layer-1" vectornator:layerName="Layer 1">
<path d="M844.28 184.675C823.421 184.675 805.47 188.271 790.405 195.456C775.34 202.641 762.92 212.248 753.186 224.3C742.988 236.352 735.348 250.707 730.249 267.394C725.15 284.081 722.592 301.696 722.592 320.238C722.592 351.294 727.819 377.141 738.249 397.769C748.678 418.396 769.187 434.972 799.78 447.487L850.53 468.362C859.337 472.071 866.418 475.524 871.749 478.769C877.079 482.013 881.379 486.201 884.624 491.3C887.405 496.399 889.259 503.113 890.186 511.456C891.113 519.8 891.561 530.477 891.561 543.456C891.561 554.581 891.225 564.636 890.53 573.675C889.835 582.714 887.613 590.498 883.905 596.987C880.197 603.477 875.001 608.448 868.28 611.925C861.559 615.402 852.176 617.144 840.124 617.144C822.046 617.144 809.178 611.917 801.53 601.487C793.882 591.058 790.061 579.373 790.061 566.394L790.061 544.144L719.124 544.144L719.124 570.55C719.124 587.237 722.272 602.662 728.53 616.8C734.788 630.938 743.244 643.326 753.905 653.987C764.566 664.649 777.291 672.993 792.124 679.019C806.957 685.045 822.973 688.05 840.124 688.05C862.837 688.05 882.051 684.373 897.811 676.956C913.571 669.54 926.327 659.341 936.061 646.362C945.332 633.847 952.046 618.646 956.217 600.8C960.389 582.954 962.499 563.597 962.499 542.737C962.499 524.66 961.572 508.563 959.717 494.425C957.863 480.287 954.379 467.644 949.28 456.519C943.718 445.857 936.077 436.474 926.342 428.362C916.608 420.251 903.853 413.201 888.092 407.175L833.842 385.613C824.572 381.904 817.267 378.196 811.936 374.488C806.605 370.779 802.561 366.368 799.78 361.269C796.999 356.17 795.257 350.383 794.561 343.894C793.866 337.404 793.53 329.284 793.53 319.55C793.53 311.206 794.233 303.23 795.624 295.581C797.014 287.933 799.54 281.076 803.249 275.05C806.957 269.488 811.848 264.852 817.874 261.144C823.9 257.435 831.765 255.581 841.499 255.581C859.577 255.581 872.444 261.511 880.092 273.331C887.741 285.151 891.561 299.17 891.561 315.394L891.561 331.363L962.499 331.363L962.499 296.613C962.499 267.873 951.821 242.393 930.499 220.144C919.837 209.483 907.194 200.883 892.592 194.394C877.991 187.904 861.894 184.675 844.28 184.675ZM192.78 188.831L192.78 683.894L404.155 683.894L404.155 612.987L263.717 612.987L263.717 467.644L386.092 467.644L386.092 400.894L263.717 400.894L263.717 255.581L404.155 255.581L404.155 188.831L192.78 188.831ZM1015.31 188.831L1015.31 683.894L1226.69 683.894L1226.69 612.987L1086.25 612.987L1086.25 188.831L1015.31 188.831Z" fill="#000000" fill-rule="evenodd" opacity="1" stroke="none"/>
</g>
<g id="Layer-3" vectornator:layerName="Layer 3">
<path d="M311.788 785.688L170.1 1031.03L248.694 1031.03L390.35 785.688L311.788 785.688Z" fill="#000000" fill-rule="evenodd" opacity="1" stroke="none"/>
<path d="M1104.83 785.695L1246.52 1031.04L1167.93 1031.04L1026.27 785.695L1104.83 785.695Z" fill="#000000" fill-rule="evenodd" opacity="1" stroke="none"/>
</g>
<g id="Layer-2" vectornator:layerName="Layer 2">
<path d="M560.719 184.375C543.105 184.375 527.007 187.604 512.406 194.094C497.804 200.583 485.162 209.183 474.5 219.844C453.178 242.093 442.5 267.572 442.5 296.312L442.5 331.062L513.438 331.062L513.438 315.094C513.438 298.87 517.257 284.851 524.906 273.031C532.554 261.211 545.422 255.281 563.5 255.281C573.234 255.281 581.099 257.135 587.125 260.844C593.151 264.552 598.042 269.188 601.75 274.75C605.459 280.776 607.985 287.633 609.375 295.281C610.766 302.93 611.469 310.906 611.469 319.25C611.469 328.984 611.132 337.104 610.438 343.594C609.741 350.083 608 355.87 605.219 360.969C602.438 366.068 598.393 370.478 593.062 374.188C587.731 377.896 580.426 381.603 571.156 385.312L516.906 406.875C501.145 412.901 488.39 419.951 478.656 428.062C468.921 436.174 461.281 445.557 455.719 456.219C450.62 467.344 447.135 479.987 445.281 494.125C443.426 508.263 442.5 524.36 442.5 542.438C442.5 563.297 444.609 582.654 448.781 600.5C452.952 618.346 459.667 633.547 468.938 646.062C478.671 659.041 491.427 669.24 507.188 676.656C522.948 684.073 542.162 687.75 564.875 687.75C581.8 687.75 597.613 684.806 612.281 678.938L612.281 683.75L681.969 683.75L681.969 600.219L681.969 543.844L681.969 488.219L681.969 334.062C682.224 329.459 682.406 324.795 682.406 319.938C682.406 301.396 679.849 283.781 674.75 267.094C669.651 250.407 662.01 236.052 651.812 224C642.079 211.948 629.659 202.341 614.594 195.156C599.529 187.971 581.578 184.375 560.719 184.375ZM612.281 444.031L612.281 583.688C610.375 589.862 607.485 595.711 603.469 601.188C595.821 611.617 582.953 616.844 564.875 616.844C552.823 616.844 543.44 615.102 536.719 611.625C529.998 608.148 524.802 603.177 521.094 596.688C517.386 590.198 515.164 582.414 514.469 573.375C513.774 564.336 513.438 554.281 513.438 543.156C513.438 530.177 513.885 519.5 514.812 511.156C515.74 502.813 517.594 496.099 520.375 491C523.62 485.901 527.92 481.713 533.25 478.469C538.581 475.224 545.662 471.771 554.469 468.062L605.219 447.188C607.675 446.183 609.955 445.088 612.281 444.031Z" fill="#000000" fill-rule="evenodd" opacity="1" stroke="none"/>
</g>
</svg>
